<?xml version="1.0" encoding="UTF-8" standalone="no"?>
<svg
   xmlns:dc="http://purl.org/dc/elements/1.1/"
   xmlns:cc="http://creativecommons.org/ns#"
   xmlns:rdf="http://www.w3.org/1999/02/22-rdf-syntax-ns#"
   xmlns:svg="http://www.w3.org/2000/svg"
   xmlns="http://www.w3.org/2000/svg"
   xmlns:sodipodi="http://sodipodi.sourceforge.net/DTD/sodipodi-0.dtd"
   xmlns:inkscape="http://www.inkscape.org/namespaces/inkscape"
   height="24"
   viewBox="0 0 24 24"
   width="24"
   version="1.1"
   id="svg10"
   sodipodi:docname="button.svg"
   inkscape:version="0.92.5 (2060ec1f9f, 2020-04-08)">
  <metadata
     id="metadata16">
    <rdf:RDF>
      <cc:Work
         rdf:about="">
        <dc:format>image/svg+xml</dc:format>
        <dc:type
           rdf:resource="http://purl.org/dc/dcmitype/StillImage" />
        <dc:title></dc:title>
      </cc:Work>
    </rdf:RDF>
  </metadata>
  <defs
     id="defs14">
    <marker
       inkscape:stockid="Arrow1Lstart"
       orient="auto"
       refY="0.0"
       refX="0.0"
       id="Arrow1Lstart"
       style="overflow:visible"
       inkscape:isstock="true">
      <path
         id="path874"
         d="M 0.0,0.0 L 5.0,-5.0 L -12.5,0.0 L 5.0,5.0 L 0.0,0.0 z "
         style="fill-rule:evenodd;stroke:#000000;stroke-width:1pt;stroke-opacity:1;fill:#000000;fill-opacity:1"
         transform="scale(0.8) translate(12.5,0)" />
    </marker>
    <marker
       inkscape:stockid="TriangleOutL"
       orient="auto"
       refY="0.0"
       refX="0.0"
       id="TriangleOutL"
       style="overflow:visible"
       inkscape:isstock="true">
      <path
         id="path1016"
         d="M 5.77,0.0 L -2.88,5.0 L -2.88,-5.0 L 5.77,0.0 z "
         style="fill-rule:evenodd;stroke:#000000;stroke-width:1pt;stroke-opacity:1;fill:#000000;fill-opacity:1"
         transform="scale(0.8)" />
    </marker>
    <marker
       inkscape:stockid="Arrow1Mend"
       orient="auto"
       refY="0.0"
       refX="0.0"
       id="Arrow1Mend"
       style="overflow:visible;"
       inkscape:isstock="true">
      <path
         id="path883"
         d="M 0.0,0.0 L 5.0,-5.0 L -12.5,0.0 L 5.0,5.0 L 0.0,0.0 z "
         style="fill-rule:evenodd;stroke:#000000;stroke-width:1pt;stroke-opacity:1;fill:#000000;fill-opacity:1"
         transform="scale(0.4) rotate(180) translate(10,0)" />
    </marker>
    <marker
       inkscape:stockid="Arrow1Lend"
       orient="auto"
       refY="0.0"
       refX="0.0"
       id="Arrow1Lend"
       style="overflow:visible;"
       inkscape:isstock="true">
      <path
         id="path877"
         d="M 0.0,0.0 L 5.0,-5.0 L -12.5,0.0 L 5.0,5.0 L 0.0,0.0 z "
         style="fill-rule:evenodd;stroke:#000000;stroke-width:1pt;stroke-opacity:1;fill:#000000;fill-opacity:1"
         transform="scale(0.8) rotate(180) translate(12.5,0)" />
    </marker>
  </defs>
  <sodipodi:namedview
     pagecolor="#ffffff"
     bordercolor="#666666"
     borderopacity="1"
     objecttolerance="10"
     gridtolerance="10"
     guidetolerance="10"
     inkscape:pageopacity="0"
     inkscape:pageshadow="2"
     inkscape:window-width="1926"
     inkscape:window-height="1020"
     id="namedview12"
     showgrid="false"
     inkscape:zoom="4"
     inkscape:cx="-65.086644"
     inkscape:cy="65.562334"
     inkscape:window-x="467"
     inkscape:window-y="301"
     inkscape:window-maximized="0"
     inkscape:current-layer="svg10" />
  <rect
     x="10.5"
     y="25.5"
     width="45"
     height="9"
     rx="3"
     ry="3"
     id="rect2"
     style="fill:#ffffff" />
  <path
     style="fill:#7e0000;fill-opacity:1;stroke:none;stroke-width:1.02083325;stroke-miterlimit:4;stroke-dasharray:none;stroke-opacity:1"
     d="M 2.5527344 0 C 1.1388803 0 -1.4802974e-15 1.1388803 0 2.5527344 L 0 21.447266 C 0 22.86112 1.1388803 24 2.5527344 24 L 21.447266 24 C 22.86112 24 24 22.86112 24 21.447266 L 24 2.5527344 C 24 1.1388803 22.86112 -1.4802974e-15 21.447266 0 L 2.5527344 0 z M 11.5 1.5 L 12.5 1.5 L 12.5 4.5 L 11.5 4.5 L 11.5 1.5 z M 8 3 L 8 15 L 2 21 L 2 9 L 8 3 z M 16 3 L 22 9 L 22 21 L 16 15 L 16 3 z M 11.5 7.5 L 12.5 7.5 L 12.5 10.5 L 11.5 10.5 L 11.5 7.5 z M 11.5 13.5 L 12.5 13.5 L 12.5 16.5 L 11.5 16.5 L 11.5 13.5 z M 11.5 19.5 L 12.5 19.5 L 12.5 22.5 L 11.5 22.5 L 11.5 19.5 z "
     id="rect851" />
</svg>
