<?xml version="1.0" encoding="UTF-8" standalone="no"?>
<!-- Created with Inkscape (http://www.inkscape.org/) -->

<svg
   xmlns:dc="http://purl.org/dc/elements/1.1/"
   xmlns:cc="http://creativecommons.org/ns#"
   xmlns:rdf="http://www.w3.org/1999/02/22-rdf-syntax-ns#"
   xmlns:svg="http://www.w3.org/2000/svg"
   xmlns="http://www.w3.org/2000/svg"
   xmlns:sodipodi="http://sodipodi.sourceforge.net/DTD/sodipodi-0.dtd"
   xmlns:inkscape="http://www.inkscape.org/namespaces/inkscape"
   width="24"
   height="24"
   viewBox="0 0 6.3499998 6.3499998"
   version="1.1"
   id="svg835"
   sodipodi:docname="flip_flat.svg"
   inkscape:version="0.92.5 (2060ec1f9f, 2020-04-08)">
  <defs
     id="defs829" />
  <sodipodi:namedview
     id="base"
     pagecolor="#ffffff"
     bordercolor="#666666"
     borderopacity="1.0"
     inkscape:pageopacity="0.0"
     inkscape:pageshadow="2"
     inkscape:zoom="22.627417"
     inkscape:cx="9.3132772"
     inkscape:cy="8.6184576"
     inkscape:document-units="px"
     inkscape:current-layer="layer1"
     showgrid="false"
     units="px"
     inkscape:window-width="1582"
     inkscape:window-height="1063"
     inkscape:window-x="884"
     inkscape:window-y="287"
     inkscape:window-maximized="0" />
  <metadata
     id="metadata832">
    <rdf:RDF>
      <cc:Work
         rdf:about="">
        <dc:format>image/svg+xml</dc:format>
        <dc:type
           rdf:resource="http://purl.org/dc/dcmitype/StillImage" />
        <dc:title></dc:title>
      </cc:Work>
    </rdf:RDF>
  </metadata>
  <g
     inkscape:label="Layer 1"
     inkscape:groupmode="layer"
     id="layer1"
     transform="translate(0,-290.65)">
    <circle
       style="fill:#b90000;fill-opacity:1;stroke:none;stroke-width:0.22048609;stroke-opacity:1"
       id="path1380"
       cx="3.175"
       cy="293.82501"
       r="2.6458333" />
    <path
       style="fill:#b9c100;fill-opacity:1;stroke:none;stroke-width:0.16089898px;stroke-linecap:butt;stroke-linejoin:miter;stroke-opacity:1"
       d="m 2.4992074,292.03907 -0.9654179,0.96537 v 1.93075 l 0.9654179,-0.9654 z m 0.5792509,0 v 0.57922 h 0.1930833 v -0.57922 z m 0.772334,0 v 1.93072 l 0.965418,0.9654 v -1.93075 z m -0.772334,1.15845 v 0.5792 h 0.1930833 v -0.5792 z m 0,1.15844 v 0.57923 h 0.1930833 v -0.57923 z m -1.2003616,0.38124 0.2047743,0.61429 0.1365161,-0.1365 A 1.3515175,1.3515182 0 0 0 3.175,295.61094 1.3515175,1.3515182 0 0 0 4.1306127,295.21499 l 0.136516,0.1365 0.2047745,-0.61429 -0.6143229,0.20477 0.1365163,0.13651 A 1.1585014,1.1584443 0 0 1 3.175,295.41786 1.1585014,1.1584443 0 0 1 2.3559032,295.07848 l 0.136516,-0.13651 z"
       id="path1382"
       inkscape:connector-curvature="0" />
  </g>
</svg>
