<?xml version="1.0" encoding="UTF-8" standalone="no"?>
<svg
   xmlns:dc="http://purl.org/dc/elements/1.1/"
   xmlns:cc="http://creativecommons.org/ns#"
   xmlns:rdf="http://www.w3.org/1999/02/22-rdf-syntax-ns#"
   xmlns:svg="http://www.w3.org/2000/svg"
   xmlns="http://www.w3.org/2000/svg"
   xmlns:sodipodi="http://sodipodi.sourceforge.net/DTD/sodipodi-0.dtd"
   xmlns:inkscape="http://www.inkscape.org/namespaces/inkscape"
   width="24"
   height="24px"
   viewBox="0 0 24 24"
   version="1.1"
   id="svg835"
   sodipodi:docname="flip.svg"
   inkscape:version="1.0.2 (1.0.2+r75+1)">
  <defs
     id="defs829" />
  <sodipodi:namedview
     id="base"
     pagecolor="#ffffff"
     bordercolor="#666666"
     borderopacity="1.0"
     inkscape:pageopacity="0.0"
     inkscape:pageshadow="2"
     inkscape:cx="11.7327"
     inkscape:cy="7.5207373"
     inkscape:document-units="px"
     showgrid="false"
     units="px"
     inkscape:window-width="1582"
     inkscape:window-height="1063"
     inkscape:window-x="227"
     inkscape:window-y="216"
     inkscape:window-maximized="0"
     inkscape:document-rotation="0"
     inkscape:zoom="16" />
  <metadata
     id="metadata832">
    <rdf:RDF>
      <cc:Work
         rdf:about="">
        <dc:format>image/svg+xml</dc:format>
        <dc:type
           rdf:resource="http://purl.org/dc/dcmitype/StillImage" />
        <dc:title></dc:title>
      </cc:Work>
    </rdf:RDF>
  </metadata>
  <g>
    <path
       style="color:#000000;font-style:normal;font-variant:normal;font-weight:normal;font-stretch:normal;font-size:medium;line-height:normal;font-family:sans-serif;font-variant-ligatures:normal;font-variant-position:normal;font-variant-caps:normal;font-variant-numeric:normal;font-variant-alternates:normal;font-variant-east-asian:normal;font-feature-settings:normal;font-variation-settings:normal;text-indent:0;text-align:start;text-decoration:none;text-decoration-line:none;text-decoration-style:solid;text-decoration-color:#000000;letter-spacing:normal;word-spacing:normal;text-transform:none;writing-mode:lr-tb;direction:ltr;text-orientation:mixed;dominant-baseline:auto;baseline-shift:baseline;text-anchor:start;white-space:normal;shape-padding:0;shape-margin:0;inline-size:0;clip-rule:nonzero;display:inline;overflow:visible;visibility:visible;isolation:auto;mix-blend-mode:normal;color-interpolation:sRGB;color-interpolation-filters:linearRGB;solid-color:#000000;solid-opacity:1;vector-effect:none;fill:#000000;fill-opacity:1;fill-rule:nonzero;stroke:none;stroke-linecap:butt;stroke-linejoin:miter;stroke-miterlimit:4;stroke-dasharray:none;stroke-dashoffset:0;stroke-opacity:1;color-rendering:auto;image-rendering:auto;shape-rendering:auto;text-rendering:auto;enable-background:accumulate;stop-color:#000000;stop-opacity:1;opacity:1"
       d="M 12 2 C 6.4830746 2 2 6.4830746 2 12 C 2 17.516925 6.4830746 22 12 22 C 17.516925 22 22 17.516925 22 12 C 22 6.4830746 17.516925 2 12 2 z M 12 3 C 16.976486 3 21 7.0235141 21 12 C 21 16.976486 16.976486 21 12 21 C 7.0235141 21 3 16.976486 3 12 C 3 7.0235141 7.0235141 3 12 3 z "
       id="path1380" />
    <path
       style="fill:#b9c100;fill-opacity:1;stroke:none;stroke-width:0.608122px;stroke-linecap:butt;stroke-linejoin:miter;stroke-opacity:1"
       d="M 9.4458229,5.2499999 5.7969994,8.8986426 v 7.2973234 l 3.6488235,-3.648757 z m 2.1892951,0 V 7.439178 h 0.729764 V 5.2499999 Z m 2.919058,0 V 12.547209 L 18.203,16.195966 V 8.8986426 Z m -2.919058,4.3783939 v 2.1891022 h 0.729764 V 9.6283938 Z m 0,4.3783562 v 2.189216 h 0.729764 V 14.00675 Z m -4.5368001,1.440907 0.7739502,2.321726 0.5159664,-0.515906 A 5.1080977,5.1081006 0 0 0 12,18.749981 5.1080977,5.1081006 0 0 0 15.611765,17.253477 l 0.515966,0.515906 0.773951,-2.321726 -2.321851,0.773934 0.515967,0.515943 A 4.378588,4.3783724 0 0 1 12,18.02023 4.378588,4.3783724 0 0 1 8.9042008,16.737534 l 0.515966,-0.515943 z"
       id="path1382"
       inkscape:connector-curvature="0" />
  </g>
</svg>
